<?xml version="1.0" encoding="UTF-8"?>
<svg id="Layer_1" data-name="Layer 1" xmlns="http://www.w3.org/2000/svg" viewBox="0 0 1080 508.82">
  <defs>
    <style>
      .cls-1 {
        fill: #f4f4f5;
        stroke-width: 0px;
      }
    </style>
  </defs>
  <g id="Logo">
    <g>
      <g>
        <path class="cls-1" d="M169.02,246.76c-3.83-5.33-9.13-9.13-15.91-11.4,4.97-2.75,8.84-6.51,11.6-11.3,2.76-4.78,4.14-10.22,4.14-16.32,0-10.05-3.87-18-11.6-23.85-7.73-5.86-18.8-8.8-33.25-8.8h-57.87v125.56h61.25c15.46,0,27.22-2.97,35.28-8.89,8.06-5.91,12.1-14.38,12.1-25.37,0-7.77-1.92-14.33-5.75-19.64ZM93.38,196.98h27.25c6.76,0,11.9,1.22,15.4,3.67,3.5,2.46,5.25,6.13,5.25,11.03s-1.75,8.62-5.25,11.12c-3.5,2.51-8.63,3.77-15.4,3.77h-27.25v-29.6ZM141.69,275c-3.67,2.51-9.11,3.76-16.33,3.76h-31.98v-31.02h31.98c14.55,0,21.83,5.2,21.83,15.6,0,5.26-1.83,9.15-5.5,11.66Z"/>
        <path class="cls-1" d="M192.88,175.1v125.56h26.4v-125.56h-26.4Z"/>
        <path class="cls-1" d="M307.95,209.62l-26.05,61.93-25.22-61.93h-27.25l7.72,18.36,30.53,72.67h27.25l21.41-50.75,15.84-37.51,1.17-2.77h-25.39Z"/>
        <path class="cls-1" d="M405.08,267.82c-4.63,8.35-11.46,12.53-20.48,12.53-6.88,0-12.57-2.26-17.09-6.78-4.51-4.51-6.76-10.66-6.76-18.45s2.25-13.93,6.76-18.45c4.51-4.51,10.21-6.76,17.09-6.76,8.92,0,15.74,4.17,20.48,12.52l16.31-8.76,4.16-2.23c-1.14-2.61-2.52-5.01-4.16-7.19-3.01-4.06-6.85-7.38-11.49-9.99-7.17-4-15.54-6-25.13-6s-18.42,2-26.15,6c-4.27,2.23-8.03,4.91-11.26,8.06h-.01c-2.61,2.58-4.89,5.44-6.82,8.61-4.16,6.8-6.32,14.46-6.51,23.01h0c-.01.4-.01.79-.01,1.19,0,9.03,2.18,17.1,6.53,24.2,4.33,7.11,10.37,12.67,18.1,16.67,7.73,4.01,16.44,6.01,26.15,6.01s17.96-2.04,25.13-6.1c4.66-2.64,8.49-5.94,11.49-9.92,1.63-2.14,3.01-4.48,4.16-7l-4.16-2.26-16.31-8.91Z"/>
        <path class="cls-1" d="M497.81,248.2l33.38-33.96,4.54-4.62h-31.48l-38.58,36.55v-71.07h-26.4v125.56h26.4v-23.18l12.69-12.53,28.77,35.71h31.98l-41.3-52.45Z"/>
        <path class="cls-1" d="M639.95,263.74c-8,9.75-17.93,14.62-29.78,14.62-7.34,0-13.87-1.67-19.62-5.02-5.75-3.35-10.24-8.01-13.46-14-3.22-6-4.82-12.81-4.82-20.45s1.61-14.45,4.82-20.44c3.22-5.99,7.7-10.66,13.46-14.01,5.75-3.35,12.29-5.02,19.62-5.02,11.85,0,21.78,4.82,29.78,14.45l12.6-12.1,5-4.81c-1.56-1.95-3.23-3.78-5-5.48-4.6-4.44-9.9-8.01-15.9-10.73-8.29-3.76-17.56-5.64-27.83-5.64-12.19,0-23.16,2.73-32.91,8.2-2.12,1.19-4.16,2.48-6.07,3.87-6.93,4.99-12.57,11.27-16.94,18.86-2.62,4.53-4.61,9.33-5.98,14.41-1.61,5.79-2.39,11.94-2.39,18.45,0,12.23,2.79,23.18,8.37,32.86,5.58,9.7,13.25,17.27,23.02,22.74,9.75,5.46,20.67,8.18,32.73,8.18,10.26,0,19.58-1.87,27.92-5.63,7.5-3.37,13.91-8.13,19.21-14.26.62-.69,1.2-1.4,1.77-2.13l-3.13-3.01-14.47-13.9Z"/>
        <path class="cls-1" d="M736.24,209.62v45.01c0,8.12-1.92,14.24-5.75,18.35-3.83,4.12-8.91,6.18-15.23,6.18-12.3,0-18.45-7.34-18.45-21.99v-47.55h-26.4v51.44c0,3,.18,5.85.52,8.51.85,6.61,2.75,12.23,5.72,16.84,1.23,1.93,2.64,3.69,4.25,5.28,7,6.88,16.47,10.32,28.44,10.32,5.63,0,10.88-1.05,15.73-3.13,4.86-2.1,9.03-5.11,12.53-9.06v10.84h25.04v-91.04h-26.4Z"/>
        <path class="cls-1" d="M881.1,233.54c-.46-1.04-.98-2.04-1.52-3.02-3.95-7.05-9.4-12.53-16.34-16.42-6.93-3.89-14.63-5.83-23.09-5.83-11.62,0-20.77,3.67-27.42,11v-44.17h-26.39v125.56h25.21v-10.49c6.54,7.89,16.08,11.85,28.6,11.85,8.45,0,16.16-1.95,23.09-5.85,6.94-3.89,12.38-9.36,16.34-16.41.55-.99,1.06-1.99,1.52-3.02-2.31-6.75-3.48-13.98-3.48-21.6s1.17-14.81,3.48-21.59ZM852.24,273.49c-4.35,4.57-9.91,6.86-16.67,6.86s-12.32-2.29-16.67-6.86c-4.35-4.57-6.51-10.68-6.51-18.36s2.17-13.79,6.51-18.36c4.35-4.56,9.9-6.85,16.67-6.85s12.32,2.29,16.67,6.85c4.33,4.57,6.51,10.69,6.51,18.36s-2.18,13.79-6.51,18.36Z"/>
        <path class="cls-1" d="M991.42,255.47c0-9.48-2.06-17.8-6.18-24.96-4.12-7.17-9.79-12.67-17-16.5-7.22-3.83-15.29-5.75-24.2-5.75s-17.41,2-24.79,6c-7.38,4.01-13.19,9.6-17.43,16.75-.55.93-1.05,1.86-1.52,2.81-3.22,6.44-4.81,13.54-4.81,21.3s1.6,14.92,4.81,21.29c.5.99,1.04,1.95,1.61,2.91,4.29,7.11,10.38,12.67,18.28,16.67,7.89,4.01,16.98,6.01,27.25,6.01,16.47,0,29-4.92,37.57-14.73l-14.05-15.23c-3.16,3.05-6.57,5.28-10.23,6.69-3.67,1.41-7.87,2.11-12.61,2.11-6.88,0-12.63-1.63-17.25-4.91-4.63-3.26-7.56-7.73-8.8-13.37h68.86c.35-4.39.51-6.76.51-7.1ZM921.7,247.17c.91-5.86,3.38-10.49,7.44-13.87,4.06-3.38,9.09-5.07,15.06-5.07s10.84,1.71,14.9,5.16c4.06,3.44,6.54,8.04,7.44,13.79h-44.84Z"/>
      </g>
      <path class="cls-1" d="M1002.39,174.98c-6.34,0-11.48,5.14-11.48,11.48s5.14,11.48,11.48,11.48,11.48-5.14,11.48-11.48-5.14-11.48-11.48-11.48M1002.39,195.64c-5.07,0-9.18-4.11-9.18-9.18s4.11-9.18,9.18-9.18,9.18,4.11,9.18,9.18-4.11,9.18-9.18,9.18M1002.67,187.92h-1.65v3.71h-2.08v-10.09h3.74c.98-.06,1.95.22,2.75.79.67.57,1.03,1.42.96,2.3.02.61-.13,1.2-.45,1.72-.32.51-.8.91-1.35,1.15l2.18,4.12v.11h-2.23l-1.88-3.71M1001.02,186.34h1.68c.44.02.87-.12,1.21-.4.31-.3.46-.72.42-1.15.04-.42-.11-.84-.4-1.15-.34-.3-.79-.44-1.24-.4h-1.66v3.1Z"/>
      <g>
        <path class="cls-1" d="M73.1,324.65c.74.62,1.11,1.47,1.11,2.56s-.37,1.94-1.11,2.56c-.74.62-1.76.93-3.06.93h-2.47v3.03h-1.43v-10h3.9c1.3,0,2.31.31,3.06.93ZM72.07,328.87c.48-.39.71-.94.71-1.66s-.24-1.28-.71-1.67c-.48-.39-1.17-.58-2.07-.58h-2.43v4.49h2.43c.9,0,1.6-.19,2.07-.58Z"/>
        <path class="cls-1" d="M117.36,333.72l-2.16-3.07c-.27.02-.48.03-.63.03h-2.47v3.04h-1.43v-10h3.9c1.3,0,2.31.31,3.06.93.74.62,1.11,1.47,1.11,2.56,0,.77-.19,1.43-.57,1.97-.38.54-.92.94-1.63,1.19l2.37,3.36h-1.56ZM116.6,328.88c.48-.39.71-.95.71-1.67s-.24-1.28-.71-1.67c-.48-.39-1.17-.58-2.07-.58h-2.43v4.5h2.43c.9,0,1.6-.2,2.07-.59Z"/>
        <path class="cls-1" d="M162.63,332.48v1.24h-7.26v-10h7.06v1.24h-5.63v3.07h5.02v1.22h-5.02v3.23h5.83Z"/>
        <path class="cls-1" d="M201.67,333.17c-.81-.44-1.44-1.05-1.89-1.83-.46-.78-.69-1.65-.69-2.62s.23-1.85.69-2.62c.46-.78,1.09-1.39,1.9-1.83.81-.44,1.71-.66,2.71-.66.78,0,1.5.13,2.14.39.65.26,1.2.65,1.66,1.16l-.93.9c-.75-.79-1.69-1.19-2.81-1.19-.74,0-1.41.17-2.02.5-.6.33-1.07.79-1.41,1.38-.34.58-.51,1.24-.51,1.96s.17,1.38.51,1.97c.34.59.81,1.05,1.41,1.38.6.33,1.27.5,2.02.5,1.11,0,2.05-.4,2.81-1.2l.93.9c-.46.51-1.01.9-1.67,1.17-.65.27-1.37.4-2.15.4-1,0-1.9-.22-2.71-.66Z"/>
        <path class="cls-1" d="M244.65,323.72h1.43v10h-1.43v-10Z"/>
        <path class="cls-1" d="M284.19,333.49c-.7-.23-1.25-.54-1.65-.91l.53-1.12c.38.34.87.62,1.46.84.6.22,1.21.32,1.84.32.83,0,1.45-.14,1.86-.42.41-.28.61-.65.61-1.12,0-.34-.11-.62-.34-.84s-.5-.38-.83-.49c-.33-.11-.79-.24-1.39-.39-.75-.18-1.36-.36-1.82-.54-.46-.18-.86-.46-1.19-.84-.33-.38-.49-.88-.49-1.52,0-.53.14-1.02.42-1.44.28-.43.71-.77,1.28-1.03s1.28-.39,2.13-.39c.59,0,1.17.08,1.74.23s1.06.37,1.47.66l-.47,1.14c-.42-.27-.87-.47-1.34-.61s-.94-.21-1.4-.21c-.81,0-1.42.15-1.82.44-.4.3-.61.68-.61,1.14,0,.34.11.62.34.83.23.22.51.38.85.5.34.12.8.25,1.38.38.75.18,1.36.36,1.81.54.46.18.85.46,1.18.83.33.37.49.87.49,1.5,0,.52-.14,1-.43,1.44-.29.43-.72.78-1.3,1.03-.58.25-1.3.38-2.14.38-.75,0-1.48-.12-2.18-.35Z"/>
        <path class="cls-1" d="M326.7,323.72h1.43v10h-1.43v-10Z"/>
        <path class="cls-1" d="M367.19,333.17c-.81-.44-1.45-1.05-1.91-1.84-.46-.78-.69-1.65-.69-2.62s.23-1.83.69-2.62c.46-.78,1.1-1.39,1.91-1.84.81-.44,1.72-.66,2.73-.66s1.91.22,2.72.66c.81.44,1.44,1.05,1.9,1.83.46.78.69,1.65.69,2.62s-.23,1.85-.69,2.62c-.46.78-1.09,1.39-1.9,1.83-.81.44-1.71.66-2.72.66s-1.92-.22-2.73-.66ZM371.9,332.06c.59-.33,1.05-.79,1.39-1.38.34-.59.51-1.24.51-1.97s-.17-1.38-.51-1.96c-.34-.59-.8-1.05-1.39-1.38-.59-.33-1.25-.5-1.98-.5s-1.4.17-1.99.5c-.6.33-1.06.79-1.4,1.38-.34.58-.51,1.24-.51,1.96s.17,1.38.51,1.97c.34.59.8,1.05,1.4,1.38.6.33,1.26.5,1.99.5s1.39-.17,1.98-.5Z"/>
        <path class="cls-1" d="M420.28,323.72v10h-1.17l-6-7.46v7.46h-1.43v-10h1.17l6,7.46v-7.46h1.43Z"/>
        <path class="cls-1" d="M456.74,323.72h1.43v10h-1.43v-10Z"/>
        <path class="cls-1" d="M503.23,323.72v10h-1.17l-6-7.46v7.46h-1.43v-10h1.17l6,7.46v-7.46h1.43Z"/>
        <path class="cls-1" d="M546.95,332.48v1.24h-7.26v-10h7.06v1.24h-5.63v3.07h5.02v1.22h-5.02v3.23h5.83Z"/>
        <path class="cls-1" d="M593.61,323.72l-4.39,10h-1.41l-4.4-10h1.54l3.6,8.22,3.63-8.22h1.43Z"/>
        <path class="cls-1" d="M637.32,332.48v1.24h-7.26v-10h7.06v1.24h-5.63v3.07h5.02v1.22h-5.02v3.23h5.83Z"/>
        <path class="cls-1" d="M680.47,333.72l-2.16-3.07c-.27.02-.48.03-.63.03h-2.47v3.04h-1.43v-10h3.9c1.3,0,2.31.31,3.06.93.74.62,1.11,1.47,1.11,2.56,0,.77-.19,1.43-.57,1.97-.38.54-.92.94-1.63,1.19l2.37,3.36h-1.56ZM679.71,328.88c.48-.39.71-.95.71-1.67s-.24-1.28-.71-1.67c-.48-.39-1.17-.58-2.07-.58h-2.43v4.5h2.43c.9,0,1.6-.2,2.07-.59Z"/>
        <path class="cls-1" d="M723.87,330.26v3.46h-1.41v-3.49l-3.97-6.52h1.53l3.2,5.27,3.22-5.27h1.41l-3.97,6.54Z"/>
        <path class="cls-1" d="M772.19,331.22h-5.32l-1.1,2.5h-1.47l4.53-10h1.41l4.54,10h-1.5l-1.1-2.5ZM771.69,330.08l-2.16-4.9-2.16,4.9h4.32Z"/>
        <path class="cls-1" d="M819.85,323.72v10h-1.17l-6-7.46v7.46h-1.43v-10h1.17l6,7.46v-7.46h1.43Z"/>
        <path class="cls-1" d="M864.06,328.66h1.37v3.9c-.5.41-1.07.72-1.73.94-.66.22-1.34.33-2.06.33-1.01,0-1.92-.22-2.73-.66-.81-.44-1.45-1.05-1.91-1.83-.46-.78-.69-1.65-.69-2.62s.23-1.85.69-2.63c.46-.78,1.1-1.39,1.91-1.83.81-.44,1.73-.66,2.75-.66.8,0,1.53.13,2.18.39.65.26,1.21.65,1.67,1.15l-.89.89c-.8-.77-1.77-1.16-2.9-1.16-.76,0-1.45.16-2.05.49-.6.33-1.08.79-1.42,1.37-.34.59-.51,1.25-.51,1.98s.17,1.38.51,1.97.82,1.05,1.42,1.38c.61.33,1.28.5,2.04.5.9,0,1.68-.22,2.34-.64v-3.26Z"/>
        <path class="cls-1" d="M901.97,323.72h1.43v8.76h5.42v1.24h-6.84v-10Z"/>
        <path class="cls-1" d="M952.54,332.48v1.24h-7.26v-10h7.06v1.24h-5.63v3.07h5.02v1.22h-5.02v3.23h5.83Z"/>
        <path class="cls-1" d="M989.28,333.53c-.19-.19-.29-.42-.29-.71s.1-.51.29-.69.42-.28.69-.28.49.09.67.27c.18.18.27.41.27.7s-.09.52-.28.71c-.19.19-.41.28-.66.28s-.5-.09-.69-.28Z"/>
      </g>
    </g>
  </g>
</svg>